<svg xmlns="http://www.w3.org/2000/svg" xmlns:xlink="http://www.w3.org/1999/xlink" width="500" zoomAndPan="magnify" viewBox="0 0 375 374.999991" height="500" preserveAspectRatio="xMidYMid meet" version="1.0"><defs><g/><clipPath id="43eea709d9"><path d="M 179 19.722656 L 196 19.722656 L 196 45 L 179 45 Z M 179 19.722656 " clip-rule="nonzero"/></clipPath><clipPath id="52d3174e45"><path d="M 64.679688 121 L 77 121 L 77 133 L 64.679688 133 Z M 64.679688 121 " clip-rule="nonzero"/></clipPath><clipPath id="31e30000bc"><path d="M 295 124 L 310.679688 124 L 310.679688 135 L 295 135 Z M 295 124 " clip-rule="nonzero"/></clipPath></defs><g clip-path="url(#43eea709d9)"><path fill="#355b7e" d="M 179.863281 32.144531 C 179.863281 26.84375 184.632812 23.535156 187.652344 19.800781 C 190.730469 23.472656 195.136719 26.964844 195.378906 32.144531 C 195.859375 37.683594 190.730469 41.113281 187.589844 44.96875 C 184.511719 41.113281 179.441406 37.683594 179.863281 32.144531 Z M 179.863281 32.144531 " fill-opacity="1" fill-rule="nonzero"/></g><path fill="#355b7e" d="M 142.738281 46.113281 C 141.890625 37.804688 148.714844 31.964844 153.421875 26.125 C 159.097656 31.179688 166.761719 35.9375 167.304688 44.304688 C 168.210938 52.796875 161.269531 58.757812 156.441406 64.71875 C 150.824219 59.480469 142.976562 54.601562 142.738281 46.113281 Z M 142.738281 46.113281 " fill-opacity="1" fill-rule="nonzero"/><path fill="#355b7e" d="M 207.8125 44.125 C 208.476562 35.816406 216.082031 31.058594 221.820312 26.125 C 226.527344 31.902344 233.53125 37.683594 232.445312 45.992188 C 232.324219 54.480469 224.355469 59.359375 218.800781 64.535156 C 213.789062 58.695312 206.789062 52.734375 207.8125 44.125 Z M 207.8125 44.125 " fill-opacity="1" fill-rule="nonzero"/><path fill="#355b7e" d="M 121.789062 37.019531 C 124.988281 38.226562 128.972656 38.828125 130.90625 42.019531 C 132.050781 45.449219 130.964844 49.121094 130.84375 52.675781 C 126.980469 52.433594 123.480469 50.867188 120.28125 48.882812 C 120.640625 44.910156 121.125 40.933594 121.789062 37.019531 Z M 121.789062 37.019531 " fill-opacity="1" fill-rule="nonzero"/><path fill="#355b7e" d="M 244.335938 41.957031 C 246.328125 39.308594 249.648438 38.105469 252.363281 36.296875 C 253.875 40.210938 254.78125 44.367188 255.019531 48.640625 C 251.820312 50.628906 248.320312 52.195312 244.578125 52.976562 C 244.335938 49.363281 243.128906 45.511719 244.335938 41.957031 Z M 244.335938 41.957031 " fill-opacity="1" fill-rule="nonzero"/><path fill="#355b7e" d="M 98.304688 67.246094 C 99.9375 63.089844 103.375 60.082031 106.09375 56.710938 C 109.777344 60.5625 115.269531 64.296875 114.484375 70.4375 C 114.605469 75.976562 109.414062 79.167969 106.152344 82.839844 C 102.351562 78.503906 96.554688 73.808594 98.304688 67.246094 Z M 98.304688 67.246094 " fill-opacity="1" fill-rule="nonzero"/><path fill="#355b7e" d="M 260.332031 70.257812 C 260.152344 64.355469 265.40625 60.503906 269.085938 56.648438 C 272.40625 61.105469 278.261719 65.320312 277.054688 71.640625 C 275.96875 76.277344 271.863281 79.347656 268.90625 82.898438 C 265.464844 79.167969 260.636719 75.796875 260.332031 70.257812 Z M 260.332031 70.257812 " fill-opacity="1" fill-rule="nonzero"/><path fill="#355b7e" d="M 130.90625 70.015625 C 139.898438 74.53125 150.886719 80.011719 152.636719 91.027344 C 155.171875 101.503906 147.566406 110.234375 142.3125 118.363281 C 133.441406 113.246094 121.910156 107.945312 120.824219 96.386719 C 118.648438 86.152344 126.136719 78.082031 130.90625 70.015625 Z M 130.90625 70.015625 " fill-opacity="1" fill-rule="nonzero"/><path fill="#355b7e" d="M 222.484375 90.789062 C 224.355469 79.769531 235.402344 74.710938 244.214844 69.957031 C 247.355469 75.191406 251.15625 80.128906 253.511719 85.851562 C 256.289062 93.859375 254.054688 103.550781 247.414062 109.03125 C 242.949219 112.703125 237.816406 115.472656 232.867188 118.421875 C 227.734375 110.175781 219.707031 101.382812 222.484375 90.789062 Z M 222.484375 90.789062 " fill-opacity="1" fill-rule="nonzero"/><path fill="#355b7e" d="M 80.015625 72.304688 C 83.09375 72.542969 86.171875 72.90625 89.25 73.207031 C 90.035156 76.636719 90.820312 80.011719 91.484375 83.503906 C 87.863281 83.082031 84.300781 82.480469 80.738281 81.574219 C 80.4375 78.445312 80.195312 75.375 80.015625 72.304688 Z M 80.015625 72.304688 " fill-opacity="1" fill-rule="nonzero"/><path fill="#355b7e" d="M 77.960938 93.074219 C 85.507812 93.195312 94.5625 95.183594 97.882812 102.769531 C 101.988281 109.390625 98.246094 117.097656 96.253906 123.722656 C 89.792969 121.375 81.703125 120.53125 77.71875 114.148438 C 73.554688 107.707031 76.632812 99.878906 77.960938 93.074219 Z M 77.960938 93.074219 " fill-opacity="1" fill-rule="nonzero"/><path fill="#355b7e" d="M 277.175781 102.589844 C 280.675781 95.363281 289.371094 94.21875 296.191406 91.871094 C 298.246094 98.796875 302.046875 106.921875 297.640625 113.726562 C 293.957031 120.589844 285.507812 121.375 278.867188 123.78125 C 276.933594 117.039062 273.191406 109.269531 277.175781 102.589844 Z M 277.175781 102.589844 " fill-opacity="1" fill-rule="nonzero"/><path fill="#355b7e" d="M 108.75 121.554688 C 106.574219 116.976562 109.957031 112.644531 111.949219 108.730469 C 115.328125 111.621094 121.125 113.605469 121.125 118.90625 C 120.640625 122.277344 118.832031 125.226562 117.503906 128.359375 C 114.484375 126.308594 110.679688 124.804688 108.75 121.554688 Z M 108.75 121.554688 " fill-opacity="1" fill-rule="nonzero"/><path fill="#355b7e" d="M 254.117188 118.785156 C 253.933594 113.605469 259.609375 111.5 262.929688 108.609375 C 264.800781 112.222656 268.121094 116.015625 266.734375 120.351562 C 265.523438 124.5625 260.816406 126.007812 257.558594 128.296875 C 256.347656 125.226562 254.296875 122.214844 254.117188 118.785156 Z M 254.117188 118.785156 " fill-opacity="1" fill-rule="nonzero"/><g clip-path="url(#52d3174e45)"><path fill="#355b7e" d="M 64.679688 121.3125 C 67.457031 122.15625 70.777344 121.914062 73.132812 123.78125 C 75.488281 125.949219 75.789062 129.382812 76.695312 132.269531 C 72.890625 131.851562 69.148438 131.128906 65.527344 129.921875 C 65.164062 127.03125 64.921875 124.144531 64.679688 121.3125 Z M 64.679688 121.3125 " fill-opacity="1" fill-rule="nonzero"/></g><path fill="#355b7e" d="M 158.3125 122.097656 C 165.3125 125.648438 173.707031 129.441406 175.9375 137.808594 C 178.65625 146.300781 172.316406 153.644531 168.574219 160.628906 C 161.753906 156.835938 153.421875 153.285156 151.066406 145.15625 C 147.929688 136.605469 154.570312 129.199219 158.3125 122.097656 Z M 158.3125 122.097656 " fill-opacity="1" fill-rule="nonzero"/><path fill="#355b7e" d="M 199.121094 138.171875 C 200.992188 129.5625 209.804688 125.707031 216.867188 122.15625 C 220.914062 129.382812 227.613281 137.449219 223.75 146.179688 C 221.15625 153.824219 213.1875 157.015625 206.605469 160.570312 C 202.621094 153.765625 196.828125 146.601562 199.121094 138.171875 Z M 199.121094 138.171875 " fill-opacity="1" fill-rule="nonzero"/><g clip-path="url(#31e30000bc)"><path fill="#355b7e" d="M 295.46875 133.355469 C 297.339844 129.5625 300.054688 126.371094 304.039062 124.746094 C 306.214844 125.707031 308.445312 126.613281 310.679688 127.574219 C 309.230469 129.742188 307.722656 131.910156 306.273438 134.078125 C 302.652344 133.898438 299.03125 133.65625 295.46875 133.355469 Z M 295.46875 133.355469 " fill-opacity="1" fill-rule="nonzero"/></g><path fill="#355b7e" d="M 281.402344 85.308594 C 282.488281 81.273438 284.542969 77.542969 288.101562 75.191406 C 290.457031 75.675781 292.8125 76.15625 295.167969 76.636719 C 294.140625 79.046875 293.113281 81.453125 292.085938 83.863281 C 288.527344 84.464844 284.964844 84.945312 281.402344 85.308594 Z M 281.402344 85.308594 " fill-opacity="1" fill-rule="nonzero"/><path fill="#355b7e" d="M 70.234375 141.785156 C 77.839844 144.613281 86.957031 147.082031 90.277344 155.332031 C 94.320312 162.074219 91.847656 170.023438 90.578125 177.1875 C 83.636719 174.355469 75.183594 172.429688 71.320312 165.265625 C 66.671875 158.28125 68.785156 149.492188 70.234375 141.785156 Z M 70.234375 141.785156 " fill-opacity="1" fill-rule="nonzero"/><path fill="#355b7e" d="M 283.574219 155.332031 C 287.679688 148.527344 295.769531 146.238281 302.773438 143.652344 C 303.859375 150.9375 306.453125 158.882812 302.351562 165.746094 C 298.96875 173.875 289.734375 175.921875 282.488281 179.113281 C 280.917969 171.347656 278.566406 162.375 283.574219 155.332031 Z M 283.574219 155.332031 " fill-opacity="1" fill-rule="nonzero"/><path fill="#355b7e" d="M 263.414062 187.363281 C 266.1875 185.132812 269.871094 184.652344 273.191406 183.570312 C 273.3125 187.785156 275.484375 192.722656 272.527344 196.394531 C 270.113281 199.824219 265.523438 199.644531 261.902344 200.789062 C 261.84375 196.453125 259.550781 190.792969 263.414062 187.363281 Z M 263.414062 187.363281 " fill-opacity="1" fill-rule="nonzero"/><path fill="#355b7e" d="M 97.339844 187.902344 C 101.503906 188.925781 105.429688 190.554688 108.929688 193.023438 C 108.75 197.117188 108.507812 201.210938 108.085938 205.246094 C 104.464844 203.859375 99.574219 203.917969 97.398438 200.1875 C 95.046875 196.453125 96.917969 191.878906 97.339844 187.902344 Z M 97.339844 187.902344 " fill-opacity="1" fill-rule="nonzero"/><path fill="#355b7e" d="M 129.515625 139.617188 C 129.9375 137.808594 129.394531 136.304688 128.488281 134.980469 C 126.859375 132.632812 123.359375 132.691406 121.910156 135.101562 C 121.367188 136.003906 120.945312 137.027344 120.824219 138.171875 C 119.738281 146.601562 121.003906 155.089844 122.875 163.277344 C 126.136719 155.753906 128.609375 147.746094 129.515625 139.617188 Z M 129.515625 139.617188 " fill-opacity="1" fill-rule="nonzero"/><path fill="#355b7e" d="M 245.664062 139.675781 C 245.84375 138.230469 245.421875 136.96875 244.820312 135.761719 C 243.25 132.875 239.144531 132.8125 237.574219 135.703125 C 237.152344 136.425781 236.910156 137.207031 236.972656 138.113281 C 237.09375 146.78125 240.109375 155.089844 243.492188 162.976562 C 244.335938 155.332031 245.785156 147.503906 245.664062 139.675781 Z M 245.664062 139.675781 " fill-opacity="1" fill-rule="nonzero"/><path fill="#355b7e" d="M 172.074219 221.199219 C 172.679688 212.949219 176.058594 205.246094 180.164062 198.140625 C 169.84375 183.386719 155.65625 171.347656 140.199219 162.316406 C 140.261719 166.46875 139.597656 171.046875 142.253906 174.65625 C 147.023438 182.363281 153.722656 188.566406 159.035156 195.851562 C 157.105469 197.71875 155.050781 201.269531 151.792969 199.703125 C 142.074219 195.070312 133.621094 187.785156 126.679688 179.59375 C 118.226562 169.421875 117.019531 155.8125 115.511719 143.289062 C 115.449219 138.773438 108.808594 135.222656 106.515625 140.277344 C 104.039062 150.394531 106.878906 160.929688 108.023438 171.105469 C 109.894531 186.398438 117.625 200.308594 127.644531 211.746094 C 139.355469 224.992188 152.816406 236.492188 165.253906 249.074219 C 168.753906 240.042969 171.410156 230.773438 172.074219 221.199219 Z M 172.074219 221.199219 " fill-opacity="1" fill-rule="nonzero"/><path fill="#355b7e" d="M 259.125 160.570312 C 257.617188 173.273438 256.046875 186.519531 249.648438 197.898438 C 238.539062 217.949219 220.1875 232.277344 204.25 248.171875 C 199.664062 252.808594 193.566406 256.78125 192.117188 263.527344 C 187.289062 281.46875 182.699219 299.773438 181.613281 318.375 L 181.613281 320.484375 L 178.835938 320.484375 C 167.609375 321.144531 156.378906 320.421875 145.152344 320.722656 C 145.695312 319.160156 146.238281 317.59375 146.78125 316.027344 C 154.328125 290.558594 165.496094 266.296875 174.308594 241.25 C 178.777344 229.871094 176.601562 216.863281 182.761719 206.027344 C 190.246094 190.914062 204.070312 180.617188 216.929688 170.382812 C 219.523438 168.394531 222.484375 167.070312 225.320312 165.625 C 226.949219 180.078125 213.125 188.445312 206.183594 199.222656 C 208.355469 201.390625 211.074219 205.0625 214.515625 202.535156 C 228.398438 194.707031 242.042969 183.328125 246.386719 167.371094 C 248.742188 160.027344 248.140625 152.140625 250.253906 144.792969 C 251.519531 140.761719 256.773438 139.375 258.945312 143.53125 C 260.273438 149.191406 259.609375 154.96875 259.125 160.570312 Z M 259.125 160.570312 " fill-opacity="1" fill-rule="nonzero"/><path fill="#355b7e" d="M 133.199219 181.28125 C 135.734375 169.359375 142.132812 157.4375 139.476562 145.035156 C 138.511719 144.613281 136.578125 143.710938 135.554688 143.289062 C 132.351562 152.199219 129.152344 161.171875 125.410156 169.902344 C 127.824219 173.816406 130.421875 177.609375 133.199219 181.28125 Z M 133.199219 181.28125 " fill-opacity="1" fill-rule="nonzero"/><path fill="#355b7e" d="M 234.859375 181.402344 C 237.273438 177.066406 241.015625 172.851562 241.316406 167.792969 C 238.78125 159.0625 235.339844 150.515625 231.476562 142.207031 C 229.605469 145.699219 226.46875 149.371094 227.855469 153.644531 C 229.546875 163.039062 232.5625 172.128906 234.859375 181.402344 Z M 234.859375 181.402344 " fill-opacity="1" fill-rule="nonzero"/><path fill="#355b7e" d="M 199.542969 260.09375 C 193.566406 278.820312 189.945312 298.207031 187.289062 317.59375 C 187.167969 318.375 186.925781 319.941406 186.804688 320.785156 C 198.699219 320.722656 210.652344 320.785156 222.542969 320.722656 C 222.179688 319.160156 221.820312 317.59375 221.394531 316.089844 C 216.445312 296.640625 207.632812 278.457031 199.542969 260.09375 Z M 199.542969 260.09375 " fill-opacity="1" fill-rule="nonzero"/><path fill="#355b7e" d="M 166.460938 86.332031 C 166.523438 71.941406 179.441406 62.851562 187.710938 52.675781 C 196.164062 62.730469 208.117188 72.183594 208.839844 86.332031 C 210.105469 101.382812 196.101562 110.777344 187.652344 121.253906 C 179.136719 110.835938 165.375 101.445312 166.460938 86.332031 Z M 166.460938 86.332031 " fill-opacity="1" fill-rule="nonzero"/><g fill="#355b7e" fill-opacity="1"><g transform="translate(83.401968, 355.455034)"><g><path d="M 6.761719 -27.875 C 3.519531 -27.875 1.742188 -26.132812 1.742188 -22.859375 L 1.742188 -14.636719 C 1.742188 -13.972656 2.054688 -13.554688 2.683594 -13.34375 L 10.941406 -10.628906 L 10.941406 -5.992188 C 10.941406 -5.050781 10.453125 -4.597656 9.546875 -4.597656 L 7.875 -4.597656 C 7.003906 -4.597656 6.480469 -5.050781 6.480469 -5.992188 L 6.480469 -8.675781 C 6.480469 -9.058594 6.308594 -9.234375 5.921875 -9.234375 L 2.300781 -9.234375 C 1.953125 -9.234375 1.742188 -9.058594 1.742188 -8.675781 L 1.742188 -5.019531 C 1.742188 -1.742188 3.519531 0 6.761719 0 L 10.664062 0 C 13.9375 0 15.679688 -1.742188 15.679688 -5.019531 L 15.679688 -13.066406 C 15.679688 -13.730469 15.367188 -14.113281 14.773438 -14.355469 L 6.480469 -17.074219 L 6.480469 -21.882812 C 6.480469 -22.789062 7.003906 -23.277344 7.875 -23.277344 L 9.546875 -23.277344 C 10.488281 -23.277344 10.941406 -22.789062 10.941406 -21.882812 L 10.941406 -19.164062 C 10.941406 -18.816406 11.152344 -18.605469 11.5 -18.605469 L 15.121094 -18.605469 C 15.507812 -18.605469 15.679688 -18.816406 15.679688 -19.164062 L 15.679688 -22.859375 C 15.679688 -26.132812 13.9375 -27.875 10.664062 -27.875 Z M 6.761719 -27.875 "/></g></g></g><g fill="#355b7e" fill-opacity="1"><g transform="translate(103.261573, 355.455034)"><g><path d="M 15.644531 -27.320312 C 15.644531 -27.667969 15.507812 -27.875 15.085938 -27.875 L 2.265625 -27.875 C 1.953125 -27.875 1.742188 -27.667969 1.742188 -27.320312 L 1.742188 -0.558594 C 1.742188 -0.210938 1.953125 0 2.265625 0 L 15.085938 0 C 15.507812 0 15.644531 -0.210938 15.644531 -0.558594 L 15.644531 -4.042969 C 15.644531 -4.425781 15.507812 -4.597656 15.085938 -4.597656 L 6.375 -4.597656 L 6.375 -11.636719 L 13.03125 -11.636719 C 13.378906 -11.636719 13.589844 -11.847656 13.589844 -12.230469 L 13.589844 -15.679688 C 13.589844 -16.0625 13.378906 -16.273438 13.03125 -16.273438 L 6.375 -16.273438 L 6.375 -23.242188 L 15.085938 -23.242188 C 15.507812 -23.242188 15.644531 -23.484375 15.644531 -23.832031 Z M 15.644531 -27.320312 "/></g></g></g><g fill="#355b7e" fill-opacity="1"><g transform="translate(123.086331, 355.455034)"><g><path d="M 16.0625 -22.859375 C 16.0625 -26.132812 14.320312 -27.875 11.046875 -27.875 L 2.300781 -27.875 C 1.953125 -27.875 1.742188 -27.667969 1.742188 -27.320312 L 1.742188 -0.558594 C 1.742188 -0.210938 1.953125 0 2.300781 0 L 5.921875 0 C 6.273438 0 6.480469 -0.210938 6.480469 -0.558594 L 6.480469 -9.339844 L 8.886719 -9.339844 L 11.21875 -0.488281 C 11.289062 -0.175781 11.464844 0 11.8125 0 L 15.4375 0 C 15.820312 0 16.027344 -0.210938 15.925781 -0.628906 L 13.519531 -9.757812 C 15.191406 -10.488281 16.0625 -12.023438 16.0625 -14.355469 Z M 6.480469 -13.9375 L 6.480469 -23.277344 L 9.929688 -23.277344 C 10.835938 -23.277344 11.324219 -22.789062 11.324219 -21.882812 L 11.324219 -15.332031 C 11.324219 -14.425781 10.835938 -13.9375 9.929688 -13.9375 Z M 6.480469 -13.9375 "/></g></g></g><g fill="#355b7e" fill-opacity="1"><g transform="translate(143.329174, 355.455034)"><g><path d="M 15.644531 -27.320312 C 15.644531 -27.667969 15.507812 -27.875 15.085938 -27.875 L 2.265625 -27.875 C 1.953125 -27.875 1.742188 -27.667969 1.742188 -27.320312 L 1.742188 -0.558594 C 1.742188 -0.210938 1.953125 0 2.265625 0 L 15.085938 0 C 15.507812 0 15.644531 -0.210938 15.644531 -0.558594 L 15.644531 -4.042969 C 15.644531 -4.425781 15.507812 -4.597656 15.085938 -4.597656 L 6.375 -4.597656 L 6.375 -11.636719 L 13.03125 -11.636719 C 13.378906 -11.636719 13.589844 -11.847656 13.589844 -12.230469 L 13.589844 -15.679688 C 13.589844 -16.0625 13.378906 -16.273438 13.03125 -16.273438 L 6.375 -16.273438 L 6.375 -23.242188 L 15.085938 -23.242188 C 15.507812 -23.242188 15.644531 -23.484375 15.644531 -23.832031 Z M 15.644531 -27.320312 "/></g></g></g><g fill="#355b7e" fill-opacity="1"><g transform="translate(163.153933, 355.455034)"><g><path d="M 12.441406 -27.875 C 12.054688 -27.875 11.882812 -27.667969 11.882812 -27.320312 L 11.882812 -12.613281 L 11.671875 -12.613281 L 6.375 -27.421875 C 6.273438 -27.738281 6.0625 -27.875 5.75 -27.875 L 2.300781 -27.875 C 1.953125 -27.875 1.742188 -27.667969 1.742188 -27.320312 L 1.742188 -0.558594 C 1.742188 -0.210938 1.953125 0 2.300781 0 L 5.921875 0 C 6.308594 0 6.480469 -0.210938 6.480469 -0.558594 L 6.480469 -15.332031 L 6.65625 -15.332031 L 11.988281 -0.453125 C 12.089844 -0.140625 12.300781 0 12.613281 0 L 16.0625 0 C 16.410156 0 16.621094 -0.210938 16.621094 -0.558594 L 16.621094 -27.320312 C 16.621094 -27.667969 16.410156 -27.875 16.0625 -27.875 Z M 12.441406 -27.875 "/></g></g></g><g fill="#355b7e" fill-opacity="1"><g transform="translate(183.954203, 355.455034)"><g><path d="M 15.644531 -27.320312 C 15.644531 -27.667969 15.507812 -27.875 15.085938 -27.875 L 2.265625 -27.875 C 1.953125 -27.875 1.742188 -27.667969 1.742188 -27.320312 L 1.742188 -0.558594 C 1.742188 -0.210938 1.953125 0 2.265625 0 L 15.085938 0 C 15.507812 0 15.644531 -0.210938 15.644531 -0.558594 L 15.644531 -4.042969 C 15.644531 -4.425781 15.507812 -4.597656 15.085938 -4.597656 L 6.375 -4.597656 L 6.375 -11.636719 L 13.03125 -11.636719 C 13.378906 -11.636719 13.589844 -11.847656 13.589844 -12.230469 L 13.589844 -15.679688 C 13.589844 -16.0625 13.378906 -16.273438 13.03125 -16.273438 L 6.375 -16.273438 L 6.375 -23.242188 L 15.085938 -23.242188 C 15.507812 -23.242188 15.644531 -23.484375 15.644531 -23.832031 Z M 15.644531 -27.320312 "/></g></g></g><g fill="#355b7e" fill-opacity="1"><g transform="translate(203.778963, 355.455034)"><g/></g></g><g fill="#355b7e" fill-opacity="1"><g transform="translate(214.928586, 355.455034)"><g><path d="M 6.761719 -27.875 C 3.519531 -27.875 1.742188 -26.132812 1.742188 -22.859375 L 1.742188 -14.636719 C 1.742188 -13.972656 2.054688 -13.554688 2.683594 -13.34375 L 10.941406 -10.628906 L 10.941406 -5.992188 C 10.941406 -5.050781 10.453125 -4.597656 9.546875 -4.597656 L 7.875 -4.597656 C 7.003906 -4.597656 6.480469 -5.050781 6.480469 -5.992188 L 6.480469 -8.675781 C 6.480469 -9.058594 6.308594 -9.234375 5.921875 -9.234375 L 2.300781 -9.234375 C 1.953125 -9.234375 1.742188 -9.058594 1.742188 -8.675781 L 1.742188 -5.019531 C 1.742188 -1.742188 3.519531 0 6.761719 0 L 10.664062 0 C 13.9375 0 15.679688 -1.742188 15.679688 -5.019531 L 15.679688 -13.066406 C 15.679688 -13.730469 15.367188 -14.113281 14.773438 -14.355469 L 6.480469 -17.074219 L 6.480469 -21.882812 C 6.480469 -22.789062 7.003906 -23.277344 7.875 -23.277344 L 9.546875 -23.277344 C 10.488281 -23.277344 10.941406 -22.789062 10.941406 -21.882812 L 10.941406 -19.164062 C 10.941406 -18.816406 11.152344 -18.605469 11.5 -18.605469 L 15.121094 -18.605469 C 15.507812 -18.605469 15.679688 -18.816406 15.679688 -19.164062 L 15.679688 -22.859375 C 15.679688 -26.132812 13.9375 -27.875 10.664062 -27.875 Z M 6.761719 -27.875 "/></g></g></g><g fill="#355b7e" fill-opacity="1"><g transform="translate(234.788192, 355.455034)"><g><path d="M 1.742188 -5.019531 C 1.742188 -1.742188 3.484375 0 6.761719 0 L 10.664062 0 C 13.9375 0 15.679688 -1.742188 15.679688 -5.019531 L 15.679688 -22.859375 C 15.679688 -26.132812 13.9375 -27.875 10.664062 -27.875 L 6.761719 -27.875 C 3.484375 -27.875 1.742188 -26.132812 1.742188 -22.859375 Z M 7.769531 -4.496094 C 6.863281 -4.496094 6.375 -4.949219 6.375 -5.890625 L 6.375 -21.988281 C 6.375 -22.894531 6.863281 -23.382812 7.769531 -23.382812 L 9.792969 -23.382812 C 10.699219 -23.382812 11.183594 -22.894531 11.183594 -21.988281 L 11.183594 -5.890625 C 11.183594 -4.949219 10.699219 -4.496094 9.792969 -4.496094 Z M 7.769531 -4.496094 "/></g></g></g><g fill="#355b7e" fill-opacity="1"><g transform="translate(254.647799, 355.455034)"><g><path d="M 11.777344 -27.875 C 11.394531 -27.875 11.082031 -27.5625 11.082031 -27.179688 L 11.082031 -5.992188 C 11.082031 -5.050781 10.59375 -4.597656 9.6875 -4.597656 L 7.875 -4.597656 C 6.96875 -4.597656 6.480469 -5.050781 6.480469 -5.992188 L 6.480469 -27.179688 C 6.480469 -27.5625 6.167969 -27.875 5.785156 -27.875 L 2.4375 -27.875 C 2.054688 -27.875 1.742188 -27.5625 1.742188 -27.179688 L 1.742188 -5.019531 C 1.742188 -1.742188 3.484375 0 6.761719 0 L 10.664062 0 C 13.9375 0 15.679688 -1.742188 15.679688 -5.019531 L 15.679688 -27.179688 C 15.679688 -27.5625 15.367188 -27.875 14.984375 -27.875 Z M 11.777344 -27.875 "/></g></g></g><g fill="#355b7e" fill-opacity="1"><g transform="translate(274.507405, 355.455034)"><g><path d="M 6.480469 -4.597656 L 14.773438 -4.597656 C 15.15625 -4.597656 15.332031 -4.390625 15.332031 -4.042969 L 15.332031 -0.558594 C 15.332031 -0.175781 15.15625 0 14.773438 0 L 2.300781 0 C 1.953125 0 1.742188 -0.175781 1.742188 -0.558594 L 1.742188 -27.320312 C 1.742188 -27.667969 1.953125 -27.875 2.300781 -27.875 L 5.921875 -27.875 C 6.308594 -27.875 6.480469 -27.667969 6.480469 -27.320312 Z M 6.480469 -4.597656 "/></g></g></g></svg>